<?xml version="1.0" standalone="no"?>
<!DOCTYPE svg PUBLIC "-//W3C//DTD SVG 20010904//EN"
 "http://www.w3.org/TR/2001/REC-SVG-20010904/DTD/svg10.dtd">
<svg version="1.0" xmlns="http://www.w3.org/2000/svg"
 width="512.000000pt" height="512.000000pt" viewBox="0 0 512.000000 512.000000"
 preserveAspectRatio="xMidYMid meet">

<g transform="translate(0.000000,512.000000) scale(0.100000,-0.100000)"
fill="#000000" stroke="none">
<path d="M4719 4698 c-42 -29 -105 -73 -140 -97 -134 -93 -338 -329 -450 -521
-18 -30 -35 -57 -38 -60 -3 -3 -13 -18 -21 -35 -8 -16 -28 -52 -43 -80 -16
-27 -37 -70 -47 -96 -10 -25 -28 -66 -38 -90 -44 -96 -76 -214 -97 -351 -5
-29 -11 -38 -25 -38 -11 0 -24 9 -30 19 -14 27 -13 672 1 776 22 166 43 206
129 250 26 13 60 39 75 56 23 28 26 39 21 73 -4 22 -9 43 -12 45 -19 19 -1367
24 -1421 6 -19 -6 -23 -15 -23 -50 0 -63 7 -74 68 -102 30 -14 70 -41 88 -60
58 -62 64 -96 64 -390 l0 -264 -22 7 c-13 4 -65 27 -116 50 -50 24 -94 44 -96
44 -3 0 -33 13 -68 29 -35 16 -74 32 -88 36 -14 3 -34 10 -45 15 -47 19 -175
59 -242 75 -77 19 -109 40 -119 81 -8 32 13 194 33 248 16 48 64 101 111 123
50 24 92 70 92 101 0 37 -11 51 -51 63 -40 12 -1269 26 -1343 15 -55 -9 -96
-42 -96 -79 0 -31 55 -81 105 -97 65 -20 69 -23 100 -86 24 -47 31 -75 34
-135 1 -42 -2 -85 -7 -96 -11 -20 -19 -22 -217 -54 -189 -31 -271 -58 -267
-86 4 -29 73 -162 124 -241 27 -40 48 -77 48 -81 0 -5 4 -11 8 -13 5 -1 23
-25 42 -53 18 -27 40 -57 47 -65 8 -8 35 -42 59 -75 107 -143 126 -166 181
-226 32 -34 83 -85 113 -113 30 -28 73 -69 95 -91 23 -22 96 -83 164 -135 67
-52 134 -105 149 -118 14 -13 43 -33 64 -44 21 -12 38 -25 38 -30 0 -4 4 -8
10 -8 5 0 34 -16 65 -35 30 -20 79 -48 108 -64 28 -15 102 -54 162 -87 61 -33
139 -72 175 -87 36 -16 84 -37 107 -48 24 -10 49 -19 56 -19 7 0 17 -4 23 -9
24 -22 256 -94 424 -132 64 -15 220 -40 424 -69 205 -29 564 -29 697 1 52 12
106 23 121 26 26 5 25 6 -50 95 -72 83 -224 223 -338 310 -85 65 -273 196
-329 230 -30 18 -55 36 -55 40 0 5 -4 8 -9 8 -9 0 -213 128 -238 150 -7 5 -14
10 -17 10 -2 0 -37 20 -77 45 -40 25 -76 45 -81 45 -4 0 -33 15 -65 34 -170
100 -236 133 -578 292 -186 86 -245 118 -245 133 0 10 110 -3 195 -23 247 -59
511 -173 834 -361 35 -21 228 -144 246 -157 6 -4 47 -32 92 -62 81 -55 248
-177 399 -291 43 -33 90 -67 104 -76 14 -9 34 -25 45 -35 31 -28 83 -64 93
-64 9 0 22 66 42 220 6 47 21 128 32 180 11 52 24 115 28 140 12 75 40 193 55
230 8 19 24 69 36 110 46 161 90 250 122 250 16 0 -1 -130 -29 -226 -14 -49
-41 -149 -60 -223 -19 -74 -38 -139 -41 -144 -7 -11 -27 -128 -43 -252 -6 -49
-18 -131 -26 -181 -17 -109 -19 -274 -3 -274 50 0 328 272 413 405 11 16 23
34 28 40 65 82 225 374 278 511 17 43 35 88 39 99 45 103 110 341 131 480 34
232 40 279 40 338 0 71 -30 275 -55 373 -13 49 -89 224 -98 224 -1 0 -36 -24
-78 -52z"/>
<path d="M3240 1002 c-46 -23 -58 -66 -59 -207 -1 -183 19 -225 107 -225 33 0
52 6 69 22 20 18 23 19 23 5 0 -11 8 -17 25 -17 l25 0 0 110 0 110 -60 0 c-57
0 -60 -1 -60 -25 0 -20 5 -25 25 -25 22 0 25 -4 25 -38 0 -50 -23 -82 -60 -82
-43 0 -50 23 -50 162 0 136 11 168 55 168 26 0 55 -33 55 -62 0 -14 8 -18 36
-18 l36 0 -7 37 c-10 55 -23 73 -60 89 -46 19 -83 18 -125 -4z"/>
<path d="M3889 1005 c-43 -24 -54 -66 -54 -215 0 -195 14 -220 122 -220 64 0
95 18 114 67 15 40 11 278 -5 318 -25 58 -115 84 -177 50z m105 -67 c12 -17
16 -50 16 -146 0 -68 -5 -132 -10 -143 -16 -28 -65 -25 -86 6 -13 20 -15 47
-12 150 3 112 5 128 22 141 28 20 53 17 70 -8z"/>
<path d="M757 1003 c-4 -3 -7 -100 -7 -215 l0 -208 30 0 30 0 0 78 c0 117 3
124 59 120 l46 -3 5 -95 5 -95 33 -3 32 -3 0 216 0 216 -32 -3 -33 -3 -3 -87
-3 -88 -48 0 c-59 0 -61 4 -61 106 0 71 -1 74 -23 74 -13 0 -27 -3 -30 -7z"/>
<path d="M1077 1004 c-4 -4 -7 -101 -7 -216 l0 -208 100 0 c99 0 100 0 100 25
0 23 -4 24 -62 27 l-63 3 0 70 0 70 58 3 c53 3 57 5 57 27 0 24 -3 25 -60 25
l-61 0 3 58 3 57 60 5 c56 5 60 7 60 30 0 25 -1 25 -90 28 -50 1 -94 0 -98 -4z"/>
<path d="M1340 795 l0 -215 30 0 30 0 0 175 c0 96 4 175 8 175 4 0 24 -78 43
-172 30 -153 36 -173 54 -176 19 -3 23 8 44 115 12 65 31 150 41 188 l18 70 1
-187 1 -188 30 0 30 0 -2 213 -3 212 -47 3 c-58 4 -60 1 -82 -133 -22 -127
-26 -138 -37 -100 -10 32 -32 134 -43 198 l-7 37 -54 0 -55 0 0 -215z"/>
<path d="M1750 795 l0 -216 93 3 92 3 23 45 c29 56 25 119 -8 156 -23 23 -23
24 -5 44 24 27 25 108 3 142 -19 29 -54 38 -139 38 l-59 0 0 -215z m138 143
c15 -15 16 -63 2 -89 -7 -12 -21 -19 -40 -19 -30 0 -30 0 -30 60 0 59 0 60 28
60 15 0 33 -5 40 -12z m6 -184 c39 -38 3 -129 -47 -122 -20 3 -22 10 -25 71
l-3 67 30 0 c16 0 37 -7 45 -16z"/>
<path d="M2045 989 c-3 -13 -4 -109 -3 -214 l3 -190 33 -3 32 -3 0 90 0 91 44
0 c24 0 48 -6 54 -12 5 -7 13 -48 17 -90 l7 -78 33 0 33 0 -5 83 c-4 59 -10
90 -24 110 -20 27 -20 28 0 54 30 38 29 113 -3 149 -22 26 -29 28 -119 32 -94
4 -96 4 -102 -19z m163 -51 c7 -7 12 -28 12 -48 0 -48 -26 -73 -72 -68 -32 3
-33 5 -36 52 -2 27 -1 55 2 62 7 17 77 19 94 2z"/>
<path d="M2377 1004 c-4 -4 -7 -101 -7 -216 l0 -208 35 0 35 0 -2 213 -3 212
-25 3 c-14 2 -29 0 -33 -4z"/>
<path d="M2615 998 c-3 -7 -6 -92 -7 -188 -3 -172 -3 -175 -25 -178 -19 -3
-23 3 -29 37 -6 37 -9 41 -35 41 -28 0 -29 -2 -29 -44 0 -66 28 -96 90 -96 32
0 55 6 71 19 24 19 24 21 24 218 l0 198 -28 3 c-16 2 -29 -2 -32 -10z"/>
<path d="M2950 986 c-5 -14 -25 -101 -45 -193 -19 -92 -38 -178 -40 -190 -5
-21 -2 -23 30 -23 30 0 35 4 41 28 16 74 19 77 59 77 42 0 51 -10 60 -67 5
-35 8 -38 40 -38 19 0 35 4 35 9 0 10 -36 190 -68 336 l-17 80 -43 3 c-37 3
-43 0 -52 -22z m56 -88 c2 -13 9 -47 15 -77 5 -29 8 -59 5 -67 -6 -15 -52 -19
-60 -5 -7 10 25 183 32 176 3 -2 6 -15 8 -27z"/>
<path d="M3510 795 l0 -215 35 0 35 0 0 90 0 90 39 0 c21 0 43 -6 49 -12 5 -7
13 -48 17 -90 l7 -78 35 0 c34 0 35 1 29 31 -3 17 -6 58 -6 90 0 47 -4 63 -21
80 l-21 21 21 22 c16 17 21 35 21 79 0 88 -31 107 -171 107 l-69 0 0 -215z
m158 143 c17 -17 15 -84 -4 -102 -8 -9 -31 -16 -50 -16 l-34 0 0 65 0 65 38 0
c21 0 43 -5 50 -12z"/>
</g>
</svg>
